Coordinates
version=1
nRows=17
nColumns=40
inDegrees=yes

Units are S.I. units (second, meters, Newtons, ...)
Angles are in degrees.

endheader
time	pelvis_tilt	pelvis_list	pelvis_rotation	pelvis_tx	pelvis_ty	pelvis_tz	hip_flexion_r	hip_adduction_r	hip_rotation_r	knee_angle_r	knee_angle_r_beta	ankle_angle_r	subtalar_angle_r	mtp_angle_r	hip_flexion_l	hip_adduction_l	hip_rotation_l	knee_angle_l	knee_angle_l_beta	ankle_angle_l	subtalar_angle_l	mtp_angle_l	lumbar_extension	lumbar_bending	lumbar_rotation	arm_flex_r	arm_add_r	arm_rot_r	elbow_flex_r	pro_sup_r	wrist_flex_r	wrist_dev_r	arm_flex_l	arm_add_l	arm_rot_l	elbow_flex_l	pro_sup_l	wrist_flex_l	wrist_dev_l
     30.96578571	     -6.97785292	     -7.20249115	     -1.61154380	      1.07543423	      0.91762866	      0.50806552	     -0.42696063	      6.15387419	    -17.04420526	      6.04612933	      6.04612933	     15.49513357	     12.67553046	     -3.21404935	     37.20771425	    -13.47499755	     -4.00996090	     18.29660963	     18.29660963	      6.23872795	     -6.78113789	     14.89210376	    -11.37702744	      9.11749850	      4.05524287	     48.38396196	    -15.44351324	     -1.98995785	     95.83942232	     44.26883354	      0.00000000	      0.00000000	    -12.54836935	     -8.22409967	     -5.25521122	     26.62063059	     46.20634142	      0.00000000	      0.00000000
     30.97657143	     -6.87372788	     -7.12728573	     -1.55697004	      1.07647883	      0.91588701	      0.50650430	     -1.12805857	      5.95025605	    -16.72966870	      6.24908372	      6.24908372	     16.24448819	     12.23087003	     -3.25992090	     36.99147782	    -13.23219961	     -4.12963462	     19.33200727	     19.33200727	      5.86182403	     -7.77099089	     14.47326907	    -11.16047651	      9.01585347	      3.90428777	     49.15474502	    -15.21334676	     -1.85659474	     97.64169887	     44.21996775	      0.00000000	      0.00000000	    -13.24078218	     -8.28843565	     -5.16013683	     26.21943310	     46.17860006	      0.00000000	      0.00000000
     30.98735714	     -6.74557480	     -6.99542451	     -1.56876237	      1.07778410	      0.91407212	      0.50498798	     -1.82709679	      5.66432240	    -16.37787022	      6.53511329	      6.53511329	     17.01306381	     11.80820643	     -3.32516687	     36.69574041	    -12.99954791	     -4.23036929	     20.55979115	     20.55979115	      5.44970866	     -8.83345250	     14.08739884	    -10.93765195	      8.76480832	      3.80410462	     49.78000241	    -15.05978082	     -1.76943537	     99.08790645	     44.18034920	      0.00000000	      0.00000000	    -13.89568470	     -8.36730738	     -5.11715952	     25.83980756	     46.16063953	      0.00000000	      0.00000000
     30.99814286	     -6.69855102	     -6.93529196	     -1.55455606	      1.07912386	      0.91208649	      0.50339584	     -2.22769624	      5.44581470	    -15.48810670	      7.23845405	      7.23845405	     18.01753605	     10.34464539	     -2.71817776	     36.35463443	    -12.69980444	     -3.74611443	     21.56477209	     21.56477209	      4.17274508	    -10.78813374	     12.31316773	    -10.69814974	      8.66005744	      4.00495993	     49.62570798	    -15.32748596	     -1.48498844	    102.99441307	     44.08414518	      0.00000000	      0.00000000	    -14.19507273	     -8.45470191	     -4.89814059	     25.30645721	     46.12211769	      0.00000000	      0.00000000
     31.00892857	     -6.51902083	     -6.85775055	     -1.56698143	      1.08069025	      0.91016192	      0.50175611	     -2.79319046	      5.15505338	    -15.06747915	      7.93192021	      7.93192021	     18.87545883	      9.67574772	     -2.56234301	     36.07377312	    -12.51475066	     -3.52977563	     23.07236189	     23.07236189	      3.62505533	    -12.02974799	     11.33702856	    -10.49393490	      8.52172609	      3.95252145	     49.97929313	    -15.13493511	     -1.50334367	    104.71153625	     44.05301810	      0.00000000	      0.00000000	    -14.50776973	     -8.50307099	     -4.76418091	     24.80925778	     46.09789362	      0.00000000	      0.00000000
     31.01971429	     -6.34281342	     -6.71772196	     -1.58629057	      1.08225681	      0.90837846	      0.50019795	     -3.22867868	      4.79237774	    -14.45603973	      8.85134052	      8.85134052	     19.78668616	      8.64884304	     -2.27842123	     35.75467574	    -12.26568386	     -3.23442263	     24.47053893	     24.47053893	      3.02486756	    -13.34186695	     10.34845411	    -10.33287252	      8.20540509	      3.88804795	     49.96859084	    -15.03701779	     -1.42619302	    106.71928281	     44.01284864	      0.00000000	      0.00000000	    -14.69526890	     -8.57961503	     -4.64865891	     24.31365499	     46.08118699	      0.00000000	      0.00000000
     31.03050000	     -6.16087541	     -6.54908458	     -1.61552204	      1.08387700	      0.90674117	      0.49848342	     -3.58838320	      4.36493051	    -13.85433846	      9.92587414	      9.92587414	     20.58173759	      7.57851192	     -2.03001056	     35.47593365	    -11.99272782	     -2.91503228	     25.92871380	     25.92871380	      2.81883128	    -14.45472886	      9.46073840	    -10.15354620	      7.95150259	      3.84753811	     49.89435926	    -14.93213922	     -1.37339209	    108.58982589	     43.97627382	      0.00000000	      0.00000000	    -14.78953202	     -8.65194568	     -4.56154354	     23.85553270	     46.07198902	      0.00000000	      0.00000000
     31.04128571	     -5.95793809	     -6.35538540	     -1.60194152	      1.08541071	      0.90540691	      0.49674004	     -3.87320794	      3.90115563	    -13.28703662	     11.15577297	     11.15577297	     21.26257994	      6.46188578	     -1.87951963	     35.22257757	    -11.69940895	     -2.66089197	     27.37197878	     27.37197878	      2.89272337	    -15.29959518	      8.76593845	    -10.02085838	      7.60884886	      3.74347508	     49.61860051	    -14.84238141	     -1.32163901	    110.31598826	     43.94145960	      0.00000000	      0.00000000	    -14.71343747	     -8.71690422	     -4.48880028	     23.46412754	     46.06884718	      0.00000000	      0.00000000
     31.05207143	     -5.74417804	     -6.14947367	     -1.56183841	      1.08683361	      0.90441549	      0.49489592	     -4.03091131	      3.39847600	    -12.75429031	     12.61773609	     12.61773609	     21.79934395	      5.28151621	     -1.88219079	     34.96714302	    -11.38272354	     -2.39689607	     28.74672718	     28.74672718	      3.28922503	    -15.93402711	      8.21639738	     -9.93835744	      7.27500063	      3.59675101	     49.17626990	    -14.73926039	     -1.25349379	    111.92448575	     43.90599900	      0.00000000	      0.00000000	    -14.51661645	     -8.76876207	     -4.42473856	     23.13109487	     46.06915922	      0.00000000	      0.00000000
     31.06285714	     -5.32098600	     -5.93411890	     -1.43130524	      1.08848776	      0.90421907	      0.49285413	     -4.62934455	      2.89639055	    -12.58030667	     13.66796233	     13.66796233	     21.98969449	      4.66044041	     -2.00504342	     34.44048692	    -11.01197945	     -2.12697462	     30.00431181	     30.00431181	      3.95956252	    -16.39924592	      7.74512248	    -10.02213233	      6.91376650	      3.27878946	     48.55119107	    -14.61432791	     -1.14197818	    112.44212938	     43.88813439	      0.00000000	      0.00000000	    -14.28601152	     -8.82183092	     -4.40084133	     23.06685473	     46.07160793	      0.00000000	      0.00000000
     31.07364286	     -5.38060742	     -5.67663740	     -1.41392298	      1.08929624	      0.90360537	      0.49089185	     -3.80094146	      2.27485271	    -11.68496916	     16.31196770	     16.31196770	     22.25739570	      2.48049146	     -2.41662543	     34.38989464	    -10.65264705	     -2.02345097	     31.05383093	     31.05383093	      4.74545295	    -16.67516425	      7.49310559	     -9.79517637	      6.54885916	      3.31552238	     47.49996477	    -14.75867356	     -1.06532078	    115.11974865	     43.82407328	      0.00000000	      0.00000000	    -13.64826401	     -8.86238253	     -4.30199417	     22.61541615	     46.07879958	      0.00000000	      0.00000000
     31.08442857	     -5.17893857	     -5.45463200	     -1.31495927	      1.09029838	      0.90390008	      0.48875236	     -3.49753186	      1.73417267	    -11.08848766	     18.45098303	     18.45098303	     21.96574081	      0.70991008	     -3.30073555	     33.97577133	    -10.29049598	     -1.93362908	     31.96300262	     31.96300262	      5.84651951	    -16.77074198	      7.63794059	     -9.83861047	      6.23963266	      3.81203608	     45.98219468	    -15.47813262	     -1.51698312	    117.54852401	     43.81301528	      0.00000000	      0.00000000	    -12.36878046	     -8.90760292	     -4.03152709	     21.82317010	     46.07888630	      0.00000000	      0.00000000
     31.09521429	     -5.02391937	     -5.15909457	     -1.21496275	      1.09108954	      0.90449076	      0.48643671	     -2.83026497	      0.97679014	    -10.90258200	     21.17497486	     21.17497486	     21.69146435	     -0.52656418	     -4.02034267	     33.45312579	     -9.86087402	     -2.00780761	     32.56657031	     32.56657031	      6.76428839	    -16.76817138	      7.23277453	     -9.81563071	      5.90583261	      3.39931627	     44.86942038	    -15.16718942	     -1.23254561	    118.29722111	     43.78744882	      0.00000000	      0.00000000	    -11.80714125	     -8.87461128	     -3.94701561	     21.79324132	     46.07861393	      0.00000000	      0.00000000
     31.10600000	     -4.95734216	     -4.90352841	     -1.10757172	      1.09164418	      0.90528558	      0.48410008	     -1.84386256	      0.27863041	    -10.60328886	     24.21641437	     24.21641437	     21.00615299	     -2.22362565	     -5.05882761	     32.91359357	     -9.44613740	     -2.07959309	     32.92692217	     32.92692217	      7.63054090	    -16.74623586	      6.92727304	     -9.73447794	      5.59858149	      3.14542016	     43.45017250	    -15.16977133	     -0.94719320	    119.31553834	     43.75507880	      0.00000000	      0.00000000	    -11.01563531	     -8.82433081	     -3.85630874	     21.84146192	     46.08204864	      0.00000000	      0.00000000
     31.11678571	     -4.86631621	     -4.66846511	     -1.00875245	      1.09204466	      0.90643927	      0.48179733	     -0.86778543	     -0.33255683	    -10.17162040	     27.03884039	     27.03884039	     18.56886032	     -4.97914688	     -9.87406683	     32.25582721	     -9.05994177	     -2.20904246	     33.13087101	     33.13087101	      8.57132445	    -16.61579107	      6.89872291	     -9.75089486	      5.34293458	      3.79054571	     41.16019722	    -16.00399976	     -1.54363847	    121.55301288	     43.78677366	      0.00000000	      0.00000000	     -9.33629266	     -8.81722025	     -3.32046014	     21.19786813	     46.04179360	      0.00000000	      0.00000000
     31.12757143	     -4.76032952	     -4.34595399	     -0.92753091	      1.09228731	      0.90781513	      0.47942697	      0.47838532	     -1.19858191	    -10.09045563	     30.69020796	     30.69020796	     17.35228133	     -6.62627519	    -10.52312890	     31.42085400	     -8.59591179	     -2.48788224	     33.05434904	     33.05434904	      9.30232272	    -16.43861772	      6.51908290	     -9.75969391	      5.00760360	      3.33995600	     39.54874900	    -15.72533578	     -1.02468394	    121.74725331	     43.76425364	      0.00000000	      0.00000000	     -8.54313421	     -8.72187855	     -3.25813483	     21.53467020	     46.04568805	      0.00000000	      0.00000000
     31.13835714	     -4.80774423	     -4.04672474	     -0.84193206	      1.09221511	      0.90911850	      0.47708552	      2.21161295	     -2.00515321	     -9.87904233	     34.58328316	     34.58328316	     15.52933716	     -8.82852298	    -11.44203698	     30.67245110	     -8.13408375	     -2.74253601	     32.78354149	     32.78354149	      9.88663558	    -16.25675023	      6.15431477	     -9.62314345	      4.76117018	      3.03138852	     37.69811268	    -15.72599734	     -0.53700857	    122.10771717	     43.73856018	      0.00000000	      0.00000000	     -7.63113412	     -8.61481021	     -3.20907790	     22.00966361	     46.05333032	      0.00000000	      0.00000000
